<svg width="37" height="34" viewBox="0 0 37 34" fill="none" xmlns="http://www.w3.org/2000/svg">
<g clip-path="url(#clip0)">
<path d="M7.57744 29.3682C7.65963 28.4669 7.08434 27.8856 6.4207 27.3497C5.93787 26.9616 5.37285 26.8177 4.73592 26.8707C4.58388 26.8839 4.37226 26.901 4.28596 26.8233C4.08666 26.6453 3.9449 26.4124 3.7908 26.1966C3.76615 26.1625 3.7908 26.0924 3.80724 26.0432C3.84833 25.9201 3.87915 25.7857 3.95106 25.6778C4.52224 24.8124 3.61821 23.1613 2.82719 22.7447C2.56626 22.6065 2.26217 22.5326 1.96836 22.455C1.76496 22.4001 1.63757 22.3092 1.58826 22.1142C1.54923 21.9589 1.47115 21.8112 1.44239 21.654C1.428 21.5783 1.46499 21.4798 1.51019 21.4098C1.71359 21.1068 2.01562 20.836 2.12657 20.5104C2.42038 19.6488 2.26423 18.8062 1.70538 18.0677C1.51019 17.8102 1.16912 17.6436 0.883532 17.4504C0.756147 17.3633 0.723273 17.2705 0.700672 17.1304C0.624652 16.6438 0.811621 16.3333 1.28624 16.0795C2.05671 15.6667 2.20054 14.9264 2.28888 14.1841C2.3649 13.5346 2.14301 12.9779 1.66223 12.5083C1.48553 12.336 1.48759 12.1694 1.55333 11.9479C1.66017 11.5862 1.83276 11.3495 2.27245 11.2851C3.12922 11.1602 3.56274 10.5713 3.92641 9.92559C4.29623 9.26854 4.34349 8.60013 3.98393 7.92414C3.87915 7.72721 3.9449 7.58331 4.06201 7.40153C4.29623 7.03229 4.59415 6.88839 5.05849 6.96223C5.54954 7.03987 6.00361 6.89217 6.38372 6.61004C6.70423 6.37146 7.00626 6.10826 7.28158 5.82612C7.68634 5.40955 7.78701 4.89641 7.74181 4.34918C7.72948 4.20906 7.71305 4.01592 7.79728 3.9345C7.99042 3.75083 8.24108 3.62018 8.4753 3.47627C8.51023 3.45355 8.58831 3.47816 8.64173 3.49331C8.77528 3.53118 8.90677 3.57852 9.04032 3.62207C10.1231 3.97616 11.6476 3.48763 12.2352 2.57306C12.3832 2.34205 12.4551 2.0656 12.5373 1.8024C12.5948 1.61683 12.7037 1.52216 12.9009 1.44642C13.3201 1.28357 13.6488 1.29494 14.0145 1.59979C14.672 2.14702 15.4815 2.1243 16.2951 1.97471C16.9732 1.84974 17.4971 1.52405 17.8505 0.967357C17.9265 0.846172 18.0374 0.677649 18.1546 0.658714C18.436 0.615163 18.734 0.626524 19.0175 0.666288C19.112 0.679543 19.1921 0.836705 19.264 0.937061C19.9914 1.95767 21.4727 2.40075 22.6706 1.92548C22.9459 1.81565 23.1842 1.62062 23.4287 1.4521C23.5541 1.36689 23.6588 1.33849 23.815 1.38772C24.5115 1.60358 24.5136 1.59979 24.7108 2.24738C24.8464 2.69993 25.1813 3.01425 25.5737 3.27934C26.11 3.64479 26.6997 3.91367 27.3839 3.8758C27.69 3.85876 27.9961 3.75651 28.2899 3.65615C28.5159 3.58041 28.6721 3.61449 28.8817 3.72432C29.3008 3.94586 29.4159 4.23936 29.3604 4.6654C29.2823 5.24481 29.5926 5.7163 29.9685 6.14613C30.3384 6.56838 30.774 6.93194 31.3657 7.05312C31.6924 7.1194 32.0396 7.10614 32.3765 7.10614C32.5635 7.10614 32.6642 7.17809 32.7875 7.29928C33.1265 7.63443 33.1881 7.9639 32.958 8.38616C32.6971 8.86711 32.7957 9.38594 33.0114 9.85553C33.182 10.2304 33.4265 10.5826 33.6874 10.9121C33.9853 11.2889 34.4558 11.4309 34.9304 11.5275C35.1688 11.5767 35.2756 11.7017 35.3619 11.9062C35.5119 12.2679 35.5242 12.5689 35.1914 12.8681C34.3983 13.5763 34.5894 15.3164 35.29 15.9905C35.516 16.2083 35.8139 16.3598 36.0625 16.5605C36.1426 16.6249 36.1981 16.7366 36.2187 16.8369C36.3193 17.3217 36.1365 17.6455 35.6495 17.9124C34.9612 18.2893 34.7681 18.969 34.6531 19.6545C34.538 20.3399 34.7332 20.944 35.2448 21.4495C35.4502 21.6521 35.4379 21.8415 35.3598 22.0914C35.253 22.4323 35.0742 22.6292 34.6757 22.7011C33.8312 22.8526 33.3628 23.4245 32.997 24.0815C32.6539 24.6988 32.5758 25.3331 32.9149 25.975C33.0505 26.2326 32.9827 26.4219 32.8162 26.6605C32.5902 26.9843 32.3293 27.0903 31.9328 27.0335C31.5362 26.9767 31.1602 27.0676 30.8089 27.2456C30.1596 27.5751 29.646 28.02 29.3296 28.6506C29.159 28.9933 29.1734 29.3531 29.2001 29.7091C29.2186 29.9685 29.0994 30.1048 28.894 30.2525C28.5981 30.4684 28.3372 30.5592 27.9591 30.3964C27.1044 30.0253 26.3093 30.2828 25.5491 30.6766C24.9307 30.9985 24.5341 31.4814 24.4088 32.1309C24.3574 32.3997 24.1787 32.4887 23.928 32.5758C23.5623 32.7008 23.2952 32.6705 22.9685 32.4281C22.048 31.7427 20.5893 31.7465 19.6462 32.4206C19.3729 32.6156 19.1819 32.911 18.9723 33.1761C18.8675 33.3086 18.7545 33.3484 18.5819 33.3617C18.1196 33.4014 17.7683 33.3238 17.5258 32.894C17.1273 32.1839 16.3609 32.0173 15.5822 31.9112C14.8158 31.8071 14.1337 31.9813 13.5687 32.4868C13.3981 32.6383 13.2317 32.6326 13.0078 32.5796C12.5907 32.4831 12.3318 32.307 12.2558 31.8904C12.1181 31.1216 11.4915 30.7259 10.8073 30.4002C10.119 30.0745 9.40604 29.9779 8.68282 30.3131C8.4301 30.4305 8.23081 30.3983 8.0048 30.2317C7.56306 29.9041 7.55279 29.9173 7.57744 29.3682Z" fill="#3A181D"/>
<path d="M18.5387 0.630541C18.6989 0.630541 18.8612 0.643796 19.0194 0.664625C19.114 0.677879 19.1941 0.835041 19.266 0.935398C19.794 1.67766 20.7227 2.11506 21.6493 2.11506C21.9966 2.11506 22.3438 2.05447 22.6705 1.92381C22.9458 1.81399 23.1841 1.61896 23.4286 1.45043C23.5108 1.39363 23.5868 1.36144 23.6752 1.36144C23.7183 1.36144 23.7635 1.36901 23.8149 1.38416C24.5114 1.60002 24.5135 1.59624 24.7107 2.24382C24.8463 2.69637 25.1812 3.01069 25.5736 3.27579C26.077 3.61662 26.6256 3.87603 27.2543 3.87603C27.2975 3.87603 27.3406 3.87414 27.3838 3.87224C27.6899 3.8552 27.996 3.75295 28.2898 3.6526C28.372 3.62419 28.446 3.61094 28.5158 3.61094C28.6371 3.61094 28.7501 3.6507 28.8836 3.72076C29.3028 3.9423 29.4178 4.2358 29.3623 4.66184C29.2843 5.24126 29.5945 5.71274 29.9705 6.14257C30.3403 6.56483 30.7759 6.92838 31.3676 7.04957C31.5977 7.0969 31.8381 7.10448 32.0806 7.10448C32.1813 7.10448 32.2799 7.10258 32.3806 7.10258H32.3826C32.5696 7.10258 32.6682 7.17454 32.7915 7.29572C33.1305 7.63088 33.1921 7.96035 32.962 8.3826C32.7011 8.86356 32.7997 9.38238 33.0154 9.85197C33.186 10.2269 33.4305 10.5791 33.6914 10.9086C33.9893 11.2854 34.4598 11.4274 34.9344 11.5239C35.1728 11.5732 35.2796 11.6982 35.3659 11.9027C35.5159 12.2643 35.5282 12.5654 35.1954 12.8646C34.4023 13.5727 34.5934 15.3129 35.294 15.987C35.52 16.2047 35.8179 16.3562 36.0665 16.5569C36.1466 16.6213 36.2021 16.733 36.2227 16.8334C36.3233 17.3181 36.1405 17.6419 35.6535 17.9089C34.9653 18.2857 34.7721 18.9655 34.6571 19.6509C34.542 20.3364 34.7372 20.9404 35.2488 21.446C35.4542 21.6486 35.4419 21.8379 35.3638 22.0879C35.257 22.4287 35.0783 22.6256 34.6797 22.6976C33.8352 22.8491 33.3668 23.4209 33.001 24.078C32.6579 24.6953 32.5799 25.3296 32.9189 25.9715C33.0545 26.229 32.9867 26.4184 32.8202 26.6569C32.6333 26.9258 32.4216 27.0451 32.1278 27.0451C32.0683 27.0451 32.0046 27.0394 31.9368 27.03C31.8566 27.0186 31.7786 27.0129 31.7005 27.0129C31.3902 27.0129 31.0944 27.1 30.8129 27.242C30.1636 27.5715 29.65 28.0165 29.3336 28.647C29.163 28.9898 29.1774 29.3495 29.2041 29.7055C29.2226 29.9649 29.1035 30.1012 28.898 30.2489C28.7069 30.3891 28.5302 30.4762 28.3248 30.4762C28.2138 30.4762 28.0946 30.4497 27.9632 30.3928C27.6714 30.266 27.3879 30.213 27.1084 30.213C26.5701 30.213 26.0524 30.4137 25.551 30.6731C24.9326 30.995 24.5361 31.4778 24.4107 32.1273C24.3594 32.3962 24.1806 32.4852 23.93 32.5723C23.7923 32.6196 23.669 32.6442 23.5499 32.6442C23.3547 32.6442 23.1739 32.5761 22.9705 32.4246C22.5102 32.0819 21.9123 31.9115 21.3144 31.9115C20.7186 31.9115 20.1187 32.08 19.6482 32.417C19.3749 32.6121 19.1838 32.9074 18.9742 33.1725C18.8695 33.3051 18.7565 33.3448 18.5839 33.3581C18.5161 33.3638 18.4503 33.3676 18.3887 33.3676C18.0209 33.3676 17.7353 33.2577 17.5299 32.8904C17.1313 32.1803 16.3649 32.0137 15.5862 31.9077C15.4465 31.8887 15.3088 31.8793 15.1732 31.8793C14.5733 31.8793 14.0329 32.0705 13.5727 32.4833C13.4679 32.5761 13.3652 32.6102 13.2501 32.6102C13.1761 32.6102 13.0981 32.5969 13.0118 32.5761C12.5947 32.4795 12.3358 32.3034 12.2598 31.8868C12.1221 31.1181 11.4955 30.7223 10.8113 30.3966C10.4209 30.2111 10.0223 30.1012 9.61962 30.1012C9.31143 30.1012 9.00118 30.1656 8.68888 30.3114C8.58821 30.3588 8.49575 30.3815 8.40535 30.3815C8.2718 30.3815 8.14647 30.3304 8.01086 30.23C7.56707 29.9024 7.55474 29.9157 7.57939 29.3666C7.66158 28.4652 7.08629 27.8839 6.42265 27.3481C6.00351 27.011 5.52068 26.8577 4.98443 26.8577C4.9043 26.8577 4.82211 26.8614 4.73787 26.8671C4.67624 26.8728 4.60638 26.8785 4.53652 26.8785C4.43585 26.8785 4.33928 26.8652 4.28586 26.8198C4.08656 26.6418 3.9448 26.4089 3.7907 26.193C3.76604 26.1589 3.7907 26.0889 3.80714 26.0397C3.84823 25.9166 3.87905 25.7821 3.95096 25.6742C4.52214 24.8089 3.61811 23.1577 2.82709 22.7411C2.56615 22.6029 2.26207 22.5291 1.96826 22.4514C1.76486 22.3965 1.63747 22.3056 1.58816 22.1106C1.54912 21.9553 1.47105 21.8076 1.44228 21.6505C1.4279 21.5747 1.46488 21.4763 1.51009 21.4062C1.71349 21.1033 2.01552 20.8325 2.12647 20.5068C2.42028 19.6452 2.26413 18.8026 1.70527 18.0642C1.51009 17.8066 1.16902 17.64 0.883431 17.4469C0.756045 17.3598 0.723171 17.267 0.700571 17.1269C0.62455 16.6402 0.81152 16.3297 1.28613 16.076C2.05661 15.6632 2.20043 14.9228 2.28878 14.1806C2.3648 13.5311 2.1429 12.9744 1.66213 12.5048C1.48543 12.3325 1.48749 12.1659 1.55323 11.9443C1.66007 11.5826 1.83266 11.346 2.27235 11.2816C3.12912 11.1566 3.56264 10.5677 3.9263 9.92203C4.29613 9.26498 4.34339 8.59657 3.98383 7.92058C3.87905 7.72366 3.9448 7.57975 4.06191 7.39797C4.2571 7.09122 4.49543 6.93974 4.83649 6.93974C4.90635 6.93974 4.98032 6.94542 5.05839 6.95868C5.14674 6.97193 5.23303 6.97951 5.31727 6.97951C5.70765 6.97951 6.06926 6.83939 6.38156 6.60648C6.70208 6.3679 7.00411 6.1047 7.27942 5.82257C7.68418 5.40599 7.78486 4.89285 7.73965 4.34562C7.72733 4.2055 7.71089 4.01236 7.79513 3.93094C7.98826 3.74727 8.23892 3.61662 8.47315 3.47271C8.48342 3.46703 8.4978 3.46324 8.51219 3.46324C8.55122 3.46324 8.60053 3.47839 8.63752 3.48975C8.77107 3.52762 8.90256 3.57496 9.03611 3.61851C9.2765 3.69804 9.53949 3.73402 9.80864 3.73402C10.7517 3.73402 11.7749 3.27957 12.231 2.5695C12.379 2.33849 12.4509 2.06204 12.5331 1.79884C12.5906 1.61328 12.6995 1.5186 12.8967 1.44286C13.0673 1.37659 13.2255 1.33872 13.3754 1.33872C13.5912 1.33872 13.7946 1.41635 14.0103 1.59624C14.4295 1.94654 14.9123 2.06204 15.4177 2.06204C15.7033 2.06204 15.9971 2.02417 16.2909 1.97115C16.9689 1.84618 17.4929 1.52049 17.8463 0.9638C17.9223 0.842615 18.0332 0.674092 18.1503 0.655157C18.2798 0.638115 18.4092 0.630541 18.5387 0.630541ZM18.5387 0C18.3661 0 18.1997 0.0113611 18.0435 0.0359768C17.6079 0.10225 17.3819 0.456338 17.2607 0.645689C17.01 1.03765 16.6608 1.26298 16.1615 1.35387C15.8677 1.40878 15.6314 1.43339 15.4218 1.43339C15.0191 1.43339 14.7253 1.33872 14.4726 1.12854C14.1377 0.850189 13.7699 0.708176 13.3796 0.708176C13.1453 0.708176 12.9029 0.757407 12.6358 0.861551C12.2413 1.01493 11.9947 1.26487 11.8817 1.62464C11.8694 1.66251 11.8571 1.70038 11.8468 1.74014C11.7872 1.93707 11.7297 2.12263 11.6475 2.2495C11.3352 2.73803 10.5462 3.10537 9.81275 3.10537C9.61346 3.10537 9.4306 3.07886 9.26828 3.02584C9.23541 3.01448 9.20048 3.00312 9.16761 2.99176C9.06488 2.95767 8.95804 2.9217 8.84709 2.88951L8.84092 2.88761C8.77723 2.86868 8.65806 2.8346 8.51835 2.8346C8.36836 2.8346 8.22454 2.87436 8.10126 2.94821C8.05812 2.97472 8.01497 3.00123 7.96977 3.02584C7.75815 3.15081 7.51776 3.29283 7.30819 3.49354C7.01027 3.77567 7.04314 4.15816 7.06163 4.38728V4.39485C7.09862 4.8493 7.01027 5.15984 6.77399 5.4041C6.52744 5.65783 6.25212 5.89831 5.95626 6.11796C5.74669 6.27322 5.53301 6.35086 5.31933 6.35086C5.27207 6.35086 5.22276 6.34707 5.1755 6.3395C5.05839 6.32056 4.94539 6.31109 4.83855 6.31109C4.25915 6.31109 3.79892 6.57051 3.47429 7.07986C3.36129 7.25785 3.09419 7.67632 3.37156 8.19893C3.62222 8.67042 3.60578 9.12675 3.32019 9.63232C2.92982 10.3254 2.62779 10.5942 2.16756 10.6605C1.18546 10.8025 0.96767 11.5372 0.895758 11.7777C0.844393 11.95 0.688243 12.4707 1.16697 12.9365C1.52447 13.2849 1.66418 13.6579 1.61076 14.1105C1.52241 14.8641 1.39503 15.2902 0.945069 15.5306C0.221847 15.9169 -0.0863438 16.485 0.0266596 17.2159C0.061588 17.4412 0.143772 17.729 0.482782 17.9562C0.564967 18.0111 0.645096 18.0623 0.723171 18.1115C0.895758 18.2175 1.07245 18.3292 1.14642 18.4258C1.59227 19.0147 1.70322 19.6528 1.47721 20.3193C1.43817 20.4311 1.32312 20.575 1.19779 20.7264C1.10944 20.8344 1.01698 20.948 0.932741 21.0749C0.864939 21.1771 0.710844 21.446 0.770427 21.7603C0.795083 21.8947 0.840284 22.014 0.875212 22.1106C0.895758 22.1655 0.91425 22.2166 0.924523 22.2545C0.996434 22.5348 1.20189 22.9021 1.77924 23.0574L1.85731 23.0782C2.09565 23.1426 2.32166 23.2013 2.49013 23.2903C2.79011 23.4474 3.22157 24.0117 3.38594 24.6025C3.47634 24.9225 3.47018 25.1951 3.36951 25.3485C3.26677 25.5038 3.21952 25.6553 3.18254 25.7783C3.17432 25.8049 3.1661 25.8314 3.15788 25.8522C3.1209 25.9639 3.02022 26.2555 3.22157 26.5395C3.25034 26.5793 3.2791 26.621 3.30581 26.6626C3.44142 26.8577 3.59346 27.0792 3.81125 27.2742C4.07629 27.5109 4.42352 27.5109 4.53858 27.5109C4.63925 27.5109 4.73171 27.5033 4.79951 27.4977C4.8632 27.492 4.92484 27.4901 4.98443 27.4901C5.3748 27.4901 5.68916 27.5961 5.97269 27.8252C6.59935 28.3289 6.95069 28.736 6.89727 29.3154L6.89521 29.3287V29.3419C6.88083 29.643 6.87056 29.8816 6.98561 30.1221C7.10273 30.3701 7.29586 30.5121 7.5383 30.6901L7.5835 30.7242C7.84855 30.9192 8.11565 31.012 8.40535 31.012C8.60053 31.012 8.79983 30.9666 8.99502 30.8757C9.20253 30.7791 9.40594 30.7337 9.61962 30.7337C9.89083 30.7337 10.1785 30.8075 10.499 30.959C11.2181 31.2998 11.5119 31.5801 11.5859 31.991C11.6475 32.3299 11.7996 32.6083 12.042 32.8166C12.2454 32.9908 12.5063 33.1119 12.8454 33.1896C12.9501 33.2142 13.0919 33.2426 13.2501 33.2426C13.5542 33.2426 13.8233 33.1403 14.0494 32.9377C14.3699 32.6518 14.7376 32.5117 15.1732 32.5117C15.2739 32.5117 15.3787 32.5193 15.4855 32.5344C16.2375 32.6367 16.6875 32.7692 16.9196 33.182C17.2237 33.7254 17.7189 34 18.3866 34C18.4688 34 18.5531 33.9962 18.6455 33.9886C18.89 33.9678 19.2475 33.8996 19.5249 33.5456C19.5701 33.4888 19.6132 33.43 19.6543 33.3751C19.794 33.1896 19.9255 33.0154 20.0632 32.9188C20.4001 32.6783 20.8419 32.5458 21.3103 32.5458C21.7767 32.5458 22.2123 32.6783 22.5369 32.9188C22.8616 33.1612 23.1924 33.2786 23.5457 33.2786C23.743 33.2786 23.9443 33.2426 24.1642 33.1669C24.4005 33.0854 24.9532 32.8961 25.0805 32.2428C25.1668 31.7941 25.4298 31.4627 25.8818 31.2279C26.3873 30.9666 26.7633 30.8492 27.1023 30.8492C27.2954 30.8492 27.4803 30.889 27.6652 30.9685C27.8851 31.0632 28.1049 31.1124 28.3186 31.1124C28.7644 31.1124 29.1014 30.906 29.3151 30.7488C29.4815 30.6276 29.9274 30.3039 29.8801 29.6676C29.8575 29.3647 29.8493 29.1166 29.95 28.9159C30.1821 28.452 30.5704 28.0884 31.1375 27.8006C31.3389 27.6984 31.5217 27.6491 31.6964 27.6491C31.7395 27.6491 31.7847 27.6529 31.8279 27.6586C31.9306 27.6738 32.0292 27.6813 32.1237 27.6813C32.6518 27.6813 33.0771 27.4541 33.3914 27.0053C33.5209 26.8198 33.864 26.3294 33.5311 25.7026C33.3113 25.286 33.3339 24.8638 33.6072 24.3734C33.9729 23.7144 34.3201 23.4096 34.807 23.3243C35.4358 23.2126 35.8323 22.868 36.0193 22.2697C36.083 22.0652 36.2514 21.5236 35.746 21.0237C35.3823 20.6658 35.2467 20.2493 35.331 19.7551C35.4378 19.1226 35.5857 18.6852 36.0008 18.458C36.3644 18.2592 36.6172 18.0225 36.7692 17.7404C36.9295 17.4431 36.9705 17.1004 36.8925 16.7235C36.8678 16.6043 36.7815 16.3051 36.5144 16.0892C36.3891 15.9889 36.2638 15.9055 36.1425 15.8241C36.0069 15.7332 35.8775 15.6461 35.7871 15.559C35.6001 15.3791 35.3988 14.9569 35.3659 14.4116C35.3371 13.9344 35.4542 13.5178 35.67 13.3247C35.9432 13.0804 36.1014 12.7983 36.1405 12.4877C36.1713 12.2397 36.1282 11.986 36.0028 11.6849C35.9371 11.5277 35.7398 11.0506 35.0824 10.9161C34.692 10.8366 34.4002 10.7419 34.242 10.545C33.9626 10.1909 33.7715 9.89552 33.6441 9.61528C33.4058 9.09267 33.49 8.82569 33.5722 8.67231C33.7489 8.34473 33.8147 8.02473 33.7633 7.72176C33.714 7.4188 33.5578 7.14235 33.2887 6.87536C33.1695 6.75796 32.8901 6.48151 32.3785 6.48151H32.3764C32.3312 6.48151 32.284 6.48151 32.2388 6.48151C32.1854 6.48151 32.132 6.48151 32.0785 6.48151C31.8854 6.48151 31.684 6.47583 31.5156 6.44175C31.1704 6.36979 30.856 6.15772 30.5026 5.75251C30.1349 5.33404 30.0013 5.04054 30.0404 4.74515C30.1349 4.04266 29.8596 3.51437 29.2226 3.17922C29.0521 3.09022 28.8179 2.98608 28.5158 2.98608C28.3638 2.98608 28.2138 3.01259 28.0556 3.0656C27.8091 3.14892 27.5522 3.23602 27.3427 3.24738C27.3139 3.24928 27.2831 3.24928 27.2543 3.24928C26.8578 3.24928 26.4653 3.10158 25.9784 2.77211C25.625 2.53163 25.4442 2.32524 25.3682 2.07719C25.2572 1.70985 25.1771 1.44475 24.949 1.22321C24.723 1.00356 24.4559 0.920249 24.0512 0.795277L24.0306 0.789597C23.9094 0.751726 23.7882 0.732791 23.6711 0.732791C23.4389 0.732791 23.2252 0.802851 23.0157 0.946759C22.9561 0.988416 22.8985 1.02818 22.8431 1.06794C22.6828 1.18345 22.5308 1.29138 22.3952 1.34629C22.1609 1.43907 21.9082 1.48641 21.6432 1.48641C20.9179 1.48641 20.2234 1.14368 19.831 0.590777C19.8228 0.579416 19.8105 0.562375 19.8002 0.54344C19.6975 0.386278 19.5084 0.0965694 19.114 0.0416574C18.9167 0.0132546 18.7215 0 18.5387 0Z" fill="#F26122"/>
<path d="M25.6806 22.0819C25.6991 22.0686 25.7155 22.0554 25.734 22.0421C25.7484 22.0308 25.7627 22.0213 25.7751 22.0099L25.7792 22.0062C25.8593 21.9456 25.9662 21.8641 26.0751 21.7562C26.5949 21.2355 26.8065 20.5652 26.7058 19.7642C26.6586 19.3969 26.4962 19.0636 26.2291 18.791C26.299 18.5372 26.3052 18.3081 26.3011 18.1415C26.2908 17.6321 26.0812 17.1625 25.7196 16.8141C25.7915 16.4771 25.7669 16.123 25.6456 15.7916C25.4587 15.2804 25.056 14.8581 24.5403 14.6347C24.532 14.6309 24.5238 14.6271 24.5156 14.6252C24.4622 14.1935 24.2485 13.8034 23.8889 13.4872C23.6999 13.3206 23.4883 13.1899 23.2541 13.0972L22.009 8.48645C21.9987 8.44479 21.9864 8.40124 21.9741 8.35769L21.9638 8.31792C21.9576 8.29899 21.9515 8.27816 21.9453 8.25922C21.9083 8.14182 21.8693 8.03011 21.8261 7.9146C21.5549 7.20643 21.0002 6.63837 20.2626 6.31458C19.527 5.99268 18.7031 5.95481 17.9429 6.20665C17.8258 6.24452 17.7128 6.28997 17.6018 6.34109C16.8355 6.06274 15.9746 6.04759 15.2 6.30322C14.3432 6.58535 13.6549 7.16666 13.2707 7.92028C12.9769 7.93354 12.6872 7.98466 12.4078 8.07745C10.8648 8.5868 10.0594 10.1755 10.6121 11.6183C10.6696 11.7679 10.7374 11.9137 10.8134 12.05L11.5551 13.4834C11.2511 13.5895 10.9716 13.7675 10.7436 14.0042C10.3943 14.3677 10.2012 14.8581 10.1991 15.3826C10.1991 15.8238 10.3326 16.2783 10.5792 16.6589C10.6408 16.7554 10.7744 16.9429 11.0024 17.2667C11.1853 17.528 11.5695 18.0695 11.6209 18.1604C11.9393 18.7095 12.0277 19.3155 11.8941 20.0123C11.777 20.6182 11.8305 21.2393 12.0585 21.9115C12.2229 22.3981 12.492 22.7939 12.7283 23.1442C12.7817 23.2237 12.8331 23.2994 12.8824 23.3752C13.1228 23.7406 13.4002 24.0871 13.6919 24.3768C14.298 25.0642 14.7254 25.4069 15.3767 25.7345C15.7548 25.9238 16.3424 26.1776 17.0594 26.1776C17.117 26.1776 17.1745 26.1757 17.232 26.1719C17.4991 26.1567 17.7703 26.1151 18.0559 26.0469L18.8264 27.5333C18.9661 27.8022 19.2558 27.9613 19.5619 27.9613C19.6544 27.9613 19.7469 27.9461 19.8393 27.9158L25.9559 25.8936C26.3524 25.7629 26.5743 25.3804 26.4716 25.0036L25.6806 22.0819Z" fill="white"/>
<path d="M25.6765 25.1858L21.2056 8.62323C21.1851 8.46607 21.146 8.3089 21.0865 8.15363C20.6612 7.05918 19.3626 6.48734 18.1854 6.87551C17.982 6.94368 17.795 7.03457 17.6286 7.14628C16.9814 6.81113 16.1903 6.72592 15.4404 6.97208C14.5857 7.25421 13.9878 7.90369 13.7762 8.6611C13.4084 8.6005 13.0201 8.62512 12.6461 8.7482C11.4914 9.1288 10.8956 10.3085 11.3127 11.3821C11.401 11.6112 11.5305 11.8157 11.6866 11.9937L19.5578 27.2043L25.6765 25.1858Z" fill="white"/>
<path d="M26.0299 25.1042L21.5693 8.58141C21.559 8.54165 21.5488 8.49999 21.5364 8.45833L21.5241 8.41668C21.52 8.40532 21.5179 8.39395 21.5118 8.38259C21.4789 8.27656 21.4419 8.16673 21.3967 8.05123C20.92 6.80529 19.4305 6.15392 18.0929 6.59701C17.9285 6.65192 17.7724 6.72008 17.6245 6.8034C16.9115 6.48908 16.0958 6.44742 15.3521 6.69358C14.5199 6.96814 13.8707 7.57406 13.5707 8.33715C13.2276 8.31632 12.8824 8.36176 12.5599 8.4678C11.2449 8.90331 10.5689 10.2496 11.0374 11.4747C11.0908 11.6129 11.1504 11.7417 11.2182 11.861L19.2332 27.3481C19.3133 27.5033 19.5085 27.5772 19.6832 27.5185L25.7997 25.4962C25.9744 25.4413 26.073 25.2709 26.0299 25.1042ZM11.6353 11.2797C11.2778 10.3594 11.7873 9.34639 12.7735 9.02071C13.0817 8.91846 13.4166 8.89195 13.7392 8.94686L14.0289 8.9942L14.1029 8.731C14.296 8.03987 14.8425 7.48317 15.5657 7.24459C16.1986 7.0363 16.8992 7.09121 17.4889 7.39796L17.6656 7.48885L17.8299 7.37903C17.9778 7.28057 18.1381 7.20293 18.3066 7.14613C19.3154 6.81287 20.4331 7.30708 20.7988 8.24815C20.8009 8.25383 20.8029 8.25762 20.805 8.2633L11.6394 11.2929C11.6394 11.2891 11.6373 11.2854 11.6353 11.2797ZM19.7469 26.7914L12.0277 11.8761L20.9159 8.93739L25.245 24.9717L19.7469 26.7914ZM20.5543 11.0108L15.4856 12.6866L21.0741 24.3923C21.1748 24.6044 21.07 24.8505 20.842 24.9433C20.8317 24.9471 20.8214 24.9509 20.8112 24.9547C20.5893 25.0285 20.3406 24.9319 20.2441 24.7293L14.6288 12.9706L13.7371 13.266C13.6406 13.2982 13.5625 13.3663 13.5235 13.4534C13.4844 13.5405 13.4885 13.639 13.5317 13.7242L19.8249 25.7802C19.9051 25.9336 20.1003 26.0075 20.2749 25.9506L24.2588 24.6347C24.4334 24.576 24.532 24.4074 24.4889 24.2408L21.031 11.2475C21.0063 11.1547 20.9406 11.0771 20.8502 11.0335C20.7577 10.9862 20.6509 10.9786 20.5543 11.0108Z" fill="#3A181D"/>
<path d="M14.5096 23.716C14.2651 23.4755 14.0206 23.1763 13.8111 22.8544C13.5481 22.4511 13.246 22.0667 13.0919 21.6104C12.9358 21.1446 12.8659 20.6712 12.9605 20.1827C13.1289 19.3117 13.0324 18.4728 12.5762 17.6832C12.453 17.4674 11.6455 16.3502 11.5099 16.14C11.2202 15.6912 11.1812 15.0531 11.5551 14.6631C11.7113 14.5002 11.9126 14.3923 12.1366 14.3715C12.3071 14.3563 12.4858 14.3469 12.7529 14.593C13.0098 14.8732 14.411 16.5092 14.6247 16.71C14.8384 16.9107 15.1157 17.1814 15.3191 17.3935C15.3746 17.4522 15.3993 17.403 15.4301 17.3708C15.6355 17.1606 15.8348 16.9485 16.0444 16.7422C16.4122 16.3786 16.8231 16.0586 17.2566 15.7632C17.6634 15.4886 18.0662 15.2065 18.5161 14.9944C19.1407 14.7009 19.7653 14.4074 20.4474 14.2313C21.0104 14.0855 21.5775 13.9681 22.1589 13.9246C22.5205 13.8981 22.8595 13.9606 23.1349 14.2029C23.3855 14.4245 23.478 14.6972 23.4246 15.0115C23.4081 15.1137 23.3814 15.2141 23.3506 15.3144C23.3218 15.4053 23.3588 15.4337 23.4513 15.4318C23.667 15.428 23.8745 15.4508 24.0738 15.536C24.5936 15.7613 24.8238 16.3862 24.5587 16.8539C24.5032 16.9523 24.4436 17.047 24.3738 17.136C24.3306 17.1909 24.3306 17.2212 24.4169 17.2401C24.9039 17.3481 25.2018 17.6946 25.21 18.1547C25.2162 18.4141 25.1751 18.6622 24.9963 18.878C24.945 18.9386 24.8833 18.9879 24.8196 19.0371C24.7929 19.0579 24.7436 19.0731 24.7518 19.1128C24.7601 19.1545 24.8114 19.1469 24.8443 19.1545C24.9943 19.1905 25.134 19.2454 25.2593 19.3287C25.4627 19.465 25.5922 19.6487 25.6209 19.8778C25.6764 20.3171 25.6127 20.7318 25.2696 21.0726C25.1956 21.1465 25.1093 21.2071 25.0272 21.2714C24.9491 21.332 24.8772 21.3283 24.832 21.2487C24.7518 21.1067 24.6388 21.1143 24.493 21.1427C23.3588 21.3604 22.3192 21.7827 21.3597 22.3773C20.5276 22.8923 19.7961 23.5096 19.2188 24.267C18.8962 24.6892 18.4421 24.8843 17.9388 25.0263C17.684 25.0982 17.4251 25.1494 17.1601 25.1645C16.6978 25.191 16.2848 25.0452 15.8903 24.8464C15.3541 24.5813 15.0397 24.32 14.5096 23.716Z" fill="#F26122"/>
<path d="M26.2538 19.8138C26.2086 19.456 26.0196 19.1473 25.7073 18.9125C25.8347 18.6304 25.849 18.3539 25.8449 18.1513C25.8347 17.6552 25.5984 17.2292 25.2059 16.9546C25.3333 16.6308 25.3374 16.2654 25.2121 15.9264C25.0642 15.5212 24.7478 15.1899 24.343 15.0138C24.2567 14.9759 24.1663 14.9456 24.0718 14.921C24.0923 14.4855 23.9239 14.0973 23.5746 13.7887C23.2397 13.4933 22.8123 13.3418 22.3089 13.3418C22.2432 13.3418 22.1775 13.3437 22.1096 13.3494C21.5611 13.3891 20.994 13.4914 20.2769 13.677C19.5311 13.8701 18.8695 14.1806 18.2285 14.4817C17.76 14.7013 17.3532 14.9797 16.9587 15.2467L16.8807 15.2997C16.3773 15.6424 15.952 15.9851 15.5822 16.3487C15.5061 16.4244 15.4322 16.5002 15.3582 16.574C15.2637 16.4812 15.1671 16.3904 15.0788 16.307C14.9617 16.1953 14.2795 15.4133 13.8727 14.9456C13.5728 14.601 13.3365 14.3302 13.2379 14.2223L13.2214 14.2015L13.2029 14.1844C12.9112 13.9155 12.6009 13.7849 12.2558 13.7849C12.1879 13.7849 12.1304 13.7887 12.0749 13.7943C11.701 13.8284 11.3497 14.0007 11.0805 14.2791C10.8031 14.5669 10.6511 14.9589 10.649 15.3811C10.649 15.7485 10.76 16.1253 10.9655 16.4415C11.023 16.5305 11.1606 16.7255 11.3784 17.0361C11.6085 17.3617 11.9558 17.854 12.0174 17.9601C12.3852 18.5963 12.4879 19.2893 12.3359 20.0827C12.2332 20.6224 12.2804 21.1791 12.4859 21.785C12.6317 22.2205 12.8742 22.5746 13.1084 22.9192C13.1639 23.0006 13.2173 23.0783 13.2687 23.1559C13.4947 23.5024 13.7597 23.8281 14.0309 24.0989C14.6062 24.7521 14.9863 25.0608 15.5904 25.3637C15.9253 25.5323 16.443 25.7557 17.0574 25.7557C17.1067 25.7557 17.1539 25.7538 17.2032 25.7519C17.5012 25.7349 17.8032 25.6819 18.1319 25.5872C18.6764 25.4319 19.2948 25.1933 19.7427 24.6044C20.2441 23.9455 20.8913 23.3755 21.7193 22.8643C22.5863 22.3284 23.5109 21.9535 24.4724 21.749C24.6019 21.8456 24.7601 21.9005 24.9327 21.9005C25.0601 21.9005 25.2511 21.8702 25.4422 21.7206C25.4587 21.7074 25.4751 21.6941 25.4936 21.6827C25.5655 21.6278 25.6559 21.5597 25.7443 21.4726C26.1737 21.0389 26.3421 20.4955 26.2538 19.8138ZM25.2737 21.0768C25.1998 21.1507 25.1135 21.2113 25.0313 21.2756C24.9964 21.3021 24.9614 21.3173 24.9306 21.3173C24.8936 21.3173 24.8608 21.2965 24.8361 21.2529C24.7827 21.1582 24.7149 21.1298 24.6307 21.1298C24.5896 21.1298 24.5444 21.1374 24.4971 21.1469C23.363 21.3646 22.3233 21.7869 21.3638 22.3814C20.5317 22.8965 19.8003 23.5138 19.2229 24.2712C18.9004 24.6934 18.4463 24.8885 17.9429 25.0305C17.6881 25.1024 17.4293 25.1536 17.1642 25.1687C17.1293 25.1706 17.0923 25.1725 17.0574 25.1725C16.6382 25.1725 16.2581 25.0343 15.8945 24.8525C15.3562 24.5817 15.0397 24.3204 14.5117 23.7183C14.2672 23.4778 14.0227 23.1786 13.8131 22.8567C13.5502 22.4534 13.2481 22.069 13.094 21.6127C12.9379 21.1469 12.868 20.6735 12.9625 20.185C13.131 19.314 13.0344 18.4751 12.5783 17.6855C12.455 17.4697 11.6476 16.3525 11.512 16.1423C11.2223 15.6935 11.1832 15.0554 11.5572 14.6654C11.7133 14.5025 11.9147 14.3946 12.1386 14.3738C12.1777 14.37 12.2167 14.3662 12.2558 14.3662C12.3934 14.3662 12.5475 14.4041 12.755 14.5934C13.0118 14.8737 14.4131 16.5097 14.6268 16.7104C14.8404 16.9111 15.1178 17.1819 15.3212 17.3939C15.3397 17.4129 15.3562 17.4204 15.3685 17.4204C15.3952 17.4204 15.4116 17.392 15.4322 17.3712C15.6376 17.161 15.8369 16.9489 16.0465 16.7426C16.4143 16.379 16.8252 16.059 17.2587 15.7636C17.6655 15.489 18.0682 15.2069 18.5182 14.9948C19.1428 14.7013 19.7674 14.4078 20.4495 14.2318C21.0125 14.086 21.5796 13.9686 22.161 13.925C22.2124 13.9212 22.2617 13.9193 22.311 13.9193C22.6171 13.9193 22.9007 13.9951 23.137 14.2033C23.3876 14.4249 23.4801 14.6976 23.4267 15.0119C23.4267 15.0157 23.4246 15.0195 23.4246 15.0213C22.8103 15.1293 21.0782 15.4985 20.3324 16.3033C20.242 16.3998 20.2564 16.5456 20.3612 16.627C20.431 16.682 20.5255 16.6952 20.6077 16.6687C20.6468 16.6555 20.6838 16.6327 20.7125 16.6024C21.4583 15.7958 23.5376 15.4682 23.7061 15.4417C23.8335 15.455 23.9567 15.4834 24.0759 15.5345C24.5957 15.7598 24.8258 16.3847 24.5608 16.8524C24.5587 16.8581 24.5546 16.8618 24.5505 16.8675C23.9814 16.966 22.1775 17.3314 21.4131 18.157C21.3227 18.2536 21.3371 18.3994 21.4398 18.4808C21.5097 18.5357 21.6042 18.549 21.6864 18.5225C21.7254 18.5092 21.7624 18.4865 21.7912 18.4562C22.4487 17.7461 24.1396 17.4072 24.6491 17.3182C24.9943 17.4735 25.2018 17.7726 25.2101 18.1551C25.2142 18.3823 25.1792 18.5982 25.0518 18.7932C24.3985 18.9125 22.7322 19.2818 22.0049 20.0676C21.9145 20.1641 21.9288 20.3099 22.0316 20.3914C22.1014 20.4463 22.1959 20.4595 22.2781 20.433C22.3172 20.4198 22.3541 20.397 22.3829 20.3667C22.9931 19.7078 24.495 19.3689 25.1155 19.2515C25.1648 19.2742 25.2142 19.2969 25.2594 19.3272C25.4628 19.4635 25.5922 19.6472 25.621 19.8763C25.6806 20.3213 25.6148 20.7341 25.2737 21.0768Z" fill="#3A181D"/>
</g>
<defs>
<clipPath id="clip0">
<rect width="36.9254" height="34" fill="white"/>
</clipPath>
</defs>
</svg>
